<svg xmlns="http://www.w3.org/2000/svg" viewBox="0 0 512 512" fill="#0033a0"><path d="M122.418 195.03l-.917-.023c-11.045-.245-20.218 8.451-20.495 19.493-.276 11.042 8.451 20.218 19.493 20.495l1.088.026C164.824 235.858 200 271.737 200 315c0 44.112-35.888 80-80 80s-80-35.888-80-80c0-55.098 13.104-105.94 38.951-151.115 19.317-33.765 38.961-51.6 39.328-51.93 8.238-7.313 9.012-19.921 1.718-28.188-7.309-8.281-19.946-9.072-28.229-1.765-.967.854-23.946 21.349-46.566 60.335C24.58 177.878 0 236.683 0 315c0 66.168 53.832 120 120 120s120-53.832 120-120c0-31.641-12.208-61.497-34.374-84.069-22.122-22.526-51.672-35.275-83.208-35.901zM477.626 230.931c-22.123-22.527-51.671-35.276-83.209-35.901l-.916-.023c-11.009-.245-20.218 8.451-20.495 19.493s8.451 20.218 19.493 20.495l1.088.026C436.824 235.859 472 271.738 472 315c0 44.112-35.888 80-80 80s-80-35.888-80-80c0-55.098 13.104-105.941 38.95-151.114 19.317-33.765 38.961-51.6 39.328-51.93 8.239-7.314 9.012-19.921 1.718-28.188-7.308-8.282-19.946-9.073-28.229-1.765-.966.854-23.946 21.349-46.566 60.335C296.58 177.878 272 236.683 272 315c0 66.168 53.832 120 120 120s120-53.832 120-120c0-31.641-12.208-61.497-34.374-84.069z"/></svg>